<?xml version="1.0" standalone="no"?>
<!DOCTYPE svg PUBLIC "-//W3C//DTD SVG 20010904//EN"
 "http://www.w3.org/TR/2001/REC-SVG-20010904/DTD/svg10.dtd">
<svg version="1.0" xmlns="http://www.w3.org/2000/svg"
 width="512.000000pt" height="512.000000pt" viewBox="0 0 512.000000 512.000000"
 preserveAspectRatio="xMidYMid meet">

<g transform="translate(0.000000,512.000000) scale(0.100000,-0.100000)"
fill="#000000" stroke="none">
<path d="M585 5104 c-281 -60 -516 -312 -571 -614 -20 -111 -20 -3749 0 -3860
44 -242 201 -454 410 -555 167 -80 14 -75 2136 -75 2122 0 1969 -5 2136 75
209 101 366 313 410 555 20 111 20 3749 0 3860 -44 242 -201 454 -410 555
-167 80 -13 75 -2143 74 -1631 -1 -1908 -3 -1968 -15z m4313 -1405 c26 -9 62
-46 62 -64 0 -3 -65 -5 -145 -5 -90 0 -145 4 -145 10 0 6 -11 10 -25 10 -14 0
-25 -4 -25 -10 0 -6 -110 -10 -310 -10 -200 0 -310 4 -310 10 0 6 -11 10 -25
10 -14 0 -25 -4 -25 -10 0 -5 -18 -10 -40 -10 -22 0 -40 3 -40 8 1 15 36 52
60 61 36 14 928 14 968 0z m-2162 -1660 c10 -17 -13 -36 -27 -22 -12 12 -4 33
11 33 5 0 12 -5 16 -11z m-1366 -14 c0 -11 -12 -15 -50 -15 l-50 0 0 -45 0
-45 45 0 c33 0 45 -4 45 -15 0 -11 -12 -15 -45 -15 l-45 0 0 -55 c0 -42 -3
-55 -15 -55 -13 0 -15 21 -15 130 l0 130 65 0 c51 0 65 -3 65 -15z m737 -55
c21 -38 40 -70 43 -70 3 0 22 32 43 70 27 50 44 70 58 70 18 0 19 -8 19 -130
0 -109 -2 -130 -15 -130 -12 0 -15 19 -15 108 l0 107 -41 -72 c-22 -40 -44
-73 -49 -73 -5 0 -26 32 -47 71 l-38 71 -3 -106 c-2 -85 -6 -106 -17 -106 -12
0 -15 22 -15 130 0 123 1 130 20 130 14 0 30 -20 57 -70z m1265 53 c25 -22 23
-59 -5 -79 l-23 -18 33 -29 c41 -36 53 -28 60 37 4 32 10 46 21 46 19 0 12
-61 -13 -114 -19 -40 -9 -66 26 -66 11 0 19 -4 19 -10 0 -16 -42 -12 -61 6
-17 15 -21 15 -53 0 -46 -22 -88 -20 -120 5 -34 27 -35 71 -1 105 20 20 23 29
15 44 -16 30 -12 58 12 74 29 21 67 20 90 -1z m408 2 c0 -10 -11 -15 -35 -15
l-35 0 0 -115 c0 -96 -3 -115 -15 -115 -12 0 -15 19 -15 115 l0 115 -35 0
c-24 0 -35 5 -35 15 0 12 16 15 85 15 69 0 85 -3 85 -15z m79 -92 c20 -57 38
-103 41 -103 3 0 21 46 40 101 31 89 51 122 65 107 3 -2 -16 -61 -42 -131 -61
-166 -66 -167 -127 -1 -25 69 -46 128 -46 131 0 2 7 3 16 1 11 -2 29 -38 53
-105z m-2409 10 c0 -15 1 -15 18 0 25 23 52 22 52 -2 0 -14 -5 -18 -19 -14
-33 8 -51 -23 -51 -88 0 -46 -3 -59 -15 -59 -12 0 -15 17 -15 90 0 73 3 90 15
90 8 0 15 -7 15 -17z m227 -5 c13 -12 23 -32 23 -45 0 -22 -4 -23 -65 -23 -72
0 -83 -12 -45 -50 22 -22 51 -26 81 -10 15 8 19 7 19 -3 0 -16 -29 -27 -73
-27 -38 0 -77 40 -77 80 0 85 81 131 137 78z m190 0 c13 -12 23 -32 23 -45 0
-22 -4 -23 -65 -23 -72 0 -83 -12 -45 -50 22 -22 51 -26 81 -10 15 8 19 7 19
-3 0 -16 -29 -27 -73 -27 -38 0 -77 40 -77 80 0 85 81 131 137 78z m598 -3
c29 -28 33 -71 10 -114 -37 -73 -155 -43 -155 39 0 35 23 86 42 93 34 14 80 6
103 -18z m93 -27 c11 -29 23 -64 27 -78 7 -21 11 -15 35 50 18 50 33 76 45 79
12 2 16 -2 13 -10 -45 -116 -73 -170 -87 -167 -9 2 -29 38 -48 87 -38 99 -37
91 -19 91 8 0 23 -23 34 -52z m182 -23 c0 -58 4 -77 15 -81 21 -8 19 -24 -3
-24 -33 0 -42 21 -42 102 0 63 3 78 15 78 12 0 15 -15 15 -75z m187 53 c13
-12 23 -32 23 -45 0 -22 -4 -23 -65 -23 -72 0 -83 -12 -45 -50 22 -22 51 -26
81 -10 15 8 19 7 19 -3 0 -16 -29 -27 -73 -27 -38 0 -77 40 -77 80 0 85 81
131 137 78z m162 -3 c3 -16 1 -17 -12 -6 -9 7 -26 11 -39 9 -37 -5 -28 -36 17
-61 49 -28 57 -59 21 -82 -34 -22 -90 -16 -95 10 -3 16 -1 17 12 6 9 -7 28
-11 44 -9 42 5 36 34 -12 61 -48 27 -57 58 -23 81 31 22 82 17 87 -9z"/>
<path d="M3302 2008 c-30 -30 0 -78 37 -58 32 17 21 70 -14 70 -6 0 -16 -5
-23 -12z"/>
<path d="M3277 1892 c-52 -57 26 -122 91 -76 29 20 28 30 -7 65 -34 33 -61 37
-84 11z"/>
<path d="M1587 1922 c-26 -28 -21 -32 33 -32 34 0 50 4 50 13 0 37 -56 49 -83
19z"/>
<path d="M1777 1922 c-26 -28 -21 -32 33 -32 34 0 50 4 50 13 0 37 -56 49 -83
19z"/>
<path d="M2366 1918 c-32 -46 -8 -118 39 -118 28 0 55 34 55 70 0 36 -27 70
-55 70 -13 0 -31 -10 -39 -22z"/>
<path d="M2837 1922 c-26 -28 -21 -32 33 -32 34 0 50 4 50 13 0 37 -56 49 -83
19z"/>
</g>
</svg>
